<svg width="137" height="23" viewBox="0 0 137 23" fill="none" xmlns="http://www.w3.org/2000/svg">
<g clip-path="url(#clip0_742_3601)">
<path d="M26.812 3.86256L26.1816 3.1278L26.9603 2.57358C27.2528 2.36785 27.5659 2.15372 27.8831 1.98157C29.0276 1.30669 30.257 0.793954 31.5374 0.457489C33.9349 -0.168121 36.4484 -0.168121 38.8459 0.457489C40.1273 0.791022 41.357 1.30392 42.5002 1.98157C43.8744 2.78608 45.109 3.81596 46.1545 5.02977C46.7967 5.77371 47.3665 6.57943 47.8559 7.43558C49.1373 9.70056 49.8108 12.2695 49.8087 14.8839V22.7605H41.2313V14.8839C41.2313 13.8031 40.952 12.7412 40.4215 11.8053C39.891 10.8694 39.1281 10.0923 38.2094 9.55222C37.2907 9.01217 36.2486 8.72817 35.1881 8.72881C34.1275 8.72945 33.0858 9.01471 32.1677 9.55588C31.9061 9.70912 31.6567 9.8832 31.422 10.0765L30.4704 10.8532L30.0913 9.67344C29.9307 9.1738 29.7453 8.68257 29.5393 8.20812C29.0352 7.02385 28.3949 5.90478 27.6318 4.87442C27.3723 4.53854 27.0962 4.19425 26.812 3.86256Z" fill="#200060"/>
<path d="M0 14.8844V22.761H8.55272V14.8844C8.55272 13.2564 9.1873 11.6951 10.3169 10.5439C11.4464 9.39277 12.9784 8.74605 14.5759 8.74605C16.1733 8.74605 17.7053 9.39277 18.8349 10.5439C19.9644 11.6951 20.599 13.2564 20.599 14.8844V22.761H29.1517V14.8844C29.1588 11.3706 27.9428 7.9682 25.7199 5.2822L25.4769 4.98829L25.2503 4.73637C24.9207 4.37529 24.5746 4.03101 24.2203 3.71192C23.492 3.05718 22.7028 2.47641 21.8638 1.97789C18.5555 0.0304448 14.6291 -0.515345 10.9298 0.457993C10.0934 0.67701 9.27844 0.973542 8.49504 1.34389C8.08306 1.53703 7.67108 1.76375 7.28382 1.98208C5.07033 3.29678 3.23256 5.17839 1.95279 7.44028C1.28951 8.60711 0.787642 9.86177 0.461422 11.1686C0.155052 12.3826 2.01437e-05 13.631 0 14.8844Z" fill="#200060"/>
<path d="M14.5354 12.1602C14.8618 12.1601 15.1849 12.226 15.4862 12.3539C15.7874 12.4818 16.0608 12.6693 16.2907 12.9054C16.5205 13.1416 16.7021 13.4218 16.8251 13.7298C16.9481 14.0379 17.01 14.3677 17.0073 14.7003V22.7742H12.043V14.7003C12.043 14.0266 12.3056 13.3805 12.773 12.9042C13.2404 12.4278 13.8744 12.1602 14.5354 12.1602Z" fill="#7F3DFF"/>
<path d="M81.9704 8.39736C81.3591 7.7576 80.6333 7.2431 79.8322 6.88167C79.0109 6.51142 78.1224 6.32116 77.2243 6.32325C75.8513 6.29921 74.506 6.71802 73.3806 7.51985C72.6689 8.04497 72.0725 8.71564 71.6296 9.489C71.5088 9.30426 71.3852 9.12793 71.2589 8.95999C70.8192 8.38516 70.297 7.88124 69.7098 7.46527C69.1621 7.07834 68.5571 6.7835 67.9177 6.59196C66.744 6.25008 65.5015 6.23703 64.3211 6.55418C63.7252 6.70953 63.1557 6.95583 62.632 7.28473C62.2908 7.49887 61.972 7.74788 61.6803 8.02789V6.68433H59.332V22.6643H61.6762L61.7009 13.5155C61.6955 12.8353 61.8157 12.1602 62.0552 11.5253C62.2709 10.9519 62.5926 10.4259 63.0028 9.97604C63.3967 9.54718 63.87 9.20188 64.3953 8.95999C64.9252 8.71842 65.4997 8.5953 66.0803 8.5989C66.6487 8.59692 67.2108 8.72009 67.7282 8.95999C68.2622 9.21012 68.7425 9.56542 69.1413 10.0054C69.5646 10.4753 69.8973 11.0223 70.1218 11.6177C70.3705 12.2706 70.4936 12.9663 70.4843 13.6666V22.66H72.8326V13.5365C72.8254 12.8599 72.9471 12.1882 73.191 11.5589C73.4147 10.9785 73.7431 10.4458 74.1592 9.98864C74.5538 9.55839 75.0268 9.21045 75.5517 8.96418C76.0682 8.72144 76.6309 8.59814 77.1996 8.6031C77.768 8.60099 78.3302 8.72416 78.8475 8.96418C79.3756 9.2106 79.8493 9.56337 80.24 10.0012C80.6609 10.4793 80.9956 11.0294 81.2288 11.6261C81.4815 12.2767 81.6075 12.9712 81.5996 13.6708V22.6643H83.9437V13.5365C83.9522 12.5549 83.7688 11.5815 83.404 10.673C83.0724 9.82852 82.5858 9.05619 81.9704 8.39736Z" fill="#7F3DFF"/>
<path d="M99.9042 8.79539C99.1618 8.03491 98.2855 7.42383 97.321 6.99418C96.3132 6.54474 95.2241 6.31588 94.1241 6.3224C93.0245 6.3176 91.9355 6.54045 90.923 6.9774C88.9614 7.81758 87.401 9.40779 86.5766 11.4069C86.1446 12.435 85.9245 13.5425 85.9298 14.6609C85.9254 15.7763 86.15 16.8804 86.5889 17.9022C87.4265 19.8923 88.9826 21.4782 90.9353 22.3317C91.9448 22.7804 93.0351 23.0092 94.1364 23.0035C95.0838 23.0023 96.0236 22.8318 96.9132 22.4997C97.8006 22.1675 98.6266 21.6848 99.3562 21.0721L100.073 20.4717L98.4251 18.7923L97.836 19.2793C97.3011 19.7219 96.7039 20.0799 96.0645 20.3416C95.445 20.5885 94.7852 20.7139 94.1199 20.7111C93.3579 20.7172 92.6031 20.5614 91.9035 20.2534C91.2254 19.9517 90.608 19.5246 90.0825 18.9938C89.5531 18.4513 89.1245 17.8154 88.8178 17.117C88.6237 16.6827 88.4773 16.2279 88.3811 15.7609H102.281V14.6315C102.285 13.5295 102.065 12.4388 101.634 11.4279C101.222 10.4489 100.636 9.55627 99.9042 8.79539ZM94.1364 8.60226C94.8889 8.59819 95.634 8.75406 96.324 9.05991C97.0038 9.36084 97.6226 9.78796 98.1491 10.3195C98.6754 10.851 99.1025 11.4755 99.4098 12.1627C99.5942 12.5912 99.7323 13.0389 99.8218 13.4978H88.3893C88.4781 13.0536 88.6163 12.6211 88.8013 12.2089C89.109 11.5162 89.5391 10.8871 90.0702 10.3531C90.6052 9.82433 91.2289 9.3977 91.9117 9.09349C92.6048 8.76402 93.3594 8.59075 94.1241 8.58546L94.1364 8.60226Z" fill="#7F3DFF"/>
<path d="M116.699 8.37551C116.047 7.71758 115.27 7.20188 114.416 6.85981C112.891 6.25073 111.215 6.15653 109.633 6.59109C109.003 6.76559 108.397 7.01946 107.829 7.34684C107.398 7.59637 106.992 7.88892 106.618 8.22016V6.68346H104.273V22.6634H106.618V13.4264C106.617 12.8017 106.758 12.1851 107.03 11.6252C107.306 11.0435 107.683 10.5173 108.142 10.0717C108.613 9.62268 109.157 9.25916 109.749 8.9969C110.931 8.48554 112.265 8.47345 113.456 8.96331C114.025 9.19141 114.544 9.5309 114.985 9.96258C115.43 10.4135 115.783 10.9501 116.023 11.5413C116.29 12.219 116.421 12.944 116.41 13.6742V22.6676H118.755V13.6238C118.764 12.6248 118.582 11.6336 118.219 10.7057C117.868 9.83437 117.351 9.04242 116.699 8.37551Z" fill="#7F3DFF"/>
<path d="M134.674 1.70536V8.79262C134.153 8.24505 133.558 7.77697 132.906 7.40288C132.274 7.04098 131.597 6.76972 130.892 6.59676C129.123 6.1375 127.255 6.28507 125.577 7.01662C124.605 7.44984 123.726 8.07321 122.99 8.85141C122.264 9.62856 121.692 10.5409 121.305 11.5385C120.9 12.5632 120.694 13.6584 120.699 14.763C120.692 15.8828 120.921 16.9911 121.371 18.0128C121.799 18.9848 122.405 19.8653 123.155 20.6075C123.906 21.3453 124.784 21.9347 125.746 22.3457C126.737 22.7758 127.804 22.9958 128.881 22.9923C129.576 22.9898 130.268 22.901 130.941 22.7278C131.658 22.5528 132.345 22.2698 132.981 21.8881C133.595 21.5117 134.159 21.0574 134.661 20.5361V22.6942H136.989V1.70117L134.674 1.70536ZM128.881 8.62468C129.656 8.62115 130.424 8.78126 131.135 9.09492C131.83 9.4018 132.46 9.84392 132.989 10.3965C133.519 10.9628 133.938 11.6268 134.225 12.3531C134.533 13.1378 134.689 13.9764 134.682 14.8218C134.683 15.5929 134.529 16.3561 134.229 17.0639C133.938 17.7666 133.519 18.4064 132.993 18.9491C132.453 19.4951 131.819 19.935 131.122 20.2464C130.415 20.5571 129.653 20.7173 128.883 20.7173C128.113 20.7173 127.351 20.5571 126.644 20.2464C125.947 19.9367 125.312 19.4967 124.774 18.9491C124.239 18.3995 123.808 17.7549 123.501 17.0471C123.194 16.328 123.038 15.5514 123.044 14.7673C123.036 13.9615 123.176 13.1613 123.456 12.4076C123.725 11.6809 124.133 11.0157 124.656 10.4507C125.18 9.88571 125.808 9.43204 126.504 9.11592C127.252 8.77621 128.063 8.60848 128.881 8.62468Z" fill="#7F3DFF"/>
</g>
<defs>
<clipPath id="clip0_742_3601">
<rect width="137" height="23" fill="white"/>
</clipPath>
</defs>
</svg>
